<?xml version="1.0" encoding="UTF-8" standalone="no"?>
<svg width="1600" xmlns="http://www.w3.org/2000/svg" height="1200">
 <g id="layer4" externalResourcesRequired="false" stroke="#000" fill-rule="evenodd">
  <g stroke-width="3">
   <path id="path14357" d="m895.79 996c21.048 17.975 39.386 3.3453 48.857-20.455-11.526 7.8176-34.448 19.541-48.857 20.455z"/>
   <path id="path12585" d="m542.51 1065c22.55 16.05 39.528-0.13831 46.864-24.68-10.792 8.8027-32.592 22.5-46.864 24.68z"/>
  </g>
  <g fill="#fff">
   <g stroke-width="3">
    <path id="path12336" d="m781 561.43l95.714 4.2857 174.29-68.571s110.04-69.341 135.71-90c13.767-19.267 93.571-211.43 93.571-211.43 31.905-27.381 58.809-29.762 89.286-37.143l-41.428 245.71c11.19 5.4762 5.9523 15.238-10.714 25.714l49.286-14.286s148.32 66.284 147.14 80c-8.5465 18.025-47.995 43.927-81.428 50.714-41.783-3.9066-160.71-46.071-214.29-60.714"/>
    <path id="path12338" d="m1247.4 495.71l-198.57 186.43"/>
    <path id="path12340" d="m907.97 621.76l660.27 303.95s-95.655 76.551-148.67 78.571c-8.5652 0.32636-405.71-131.43-405.71-131.43s-283.61-128.87-307.86-139.29"/>
    <path id="path12342" d="m948.86 844.29l-197.86 70-32.857 18.571"/>
    <path id="path12344" d="m718.96 933.52c-55.772 24.632-115.03 48.081-179.39 61.602-19.582 0.56287-37.143 3.6511-55.714-0.83685-22.554-5.9883-39.3-14.754-58.824-28.319"/>
    <path id="path12346" d="m398.58 930.46c-10.982-16.522-15.398-45.166-1.126-64.719 34.761-38.899 69.523-68.707 116.41-100.03 10.779-38.86 18.528-66.609 41.429-101.43l-263.28-117.32-276.45-158.12s-24.802-12.175-15.152-36.306c15.495-38.747 115.3-60.52 115.3-60.52 225.69 82.732 441.28 168.49 671.01 269.41"/>
    <path id="path12348" d="m1125.8 446.65l-73.969-49.755c-9.2211-6.2482-19.106-9.0476-20.245-21.357 31.905-31.4 55.728-31.486 89.653-40.664l84.979 26.97"/>
    <path id="path12350" d="m336.44 567.95c2.8572 5.7143 163.98 203.41 163.98 203.41"/>
    <path id="path12352" d="m385.78 590.74l129.12 165.6"/>
    <path id="path12354" d="m929.57 836.43l-178.57 65"/>
    <path id="path1893" d="m1218.1 485c1.4286-18.571 99.286-55 99.286-55"/>
    <path id="path2781" d="m1291.7 440l197.86 77.857"/>
    <path id="path2783" d="m1333.9 187.86c-1.4285 5-63.571 240.71-63.571 240.71"/>
    <path id="path2785" d="m1277.4 203.57c20 9.2857 90.714-37.143 90.714-37.143"/>
    <path id="path2787" d="m1051 497.86c-3.5714 0-87.857 57.857-87.857 57.857-7.8778 4.6719-6.9574 12.268 5 7.8571l357.86-157.86"/>
    <path id="path3674" d="m1070.3 348.57c4.2858 2.8572 119.29 54.286 119.29 54.286"/>
   </g>
   <g stroke-width="2">
    <path id="path4561" d="m705.7 733.03c-7.7643-8.3351 2.4249-28.695 10.693-37.498 29.124 11.177 292.94 134.35 292.94 134.35l411.13 145.46"/>
    <path id="path4563" d="m1406.3 992.51c-5.0507-26.264 122.23-76.772 122.23-76.772"/>
    <path id="path4565" d="m1505.3 923.82l-355.57-166.68"/>
    <path id="path4567" d="m1173 743s-38.386 24.244-41.416 20.203c-3.0305-4.0406-275.77-125.26-275.77-125.26s30.385-6.4794 52.528-16.162c8.2858-8.847-2.7854-12.663-17.173-22.223-13.799-9.1696-105.06-38.386-105.06-38.386"/>
   </g>
  </g>
  <path id="path4569" stroke-width="2" fill="none" d="m6.2538 371.27c-4.0406-23.234 116.17-66.67 116.17-66.67"/>
  <g fill="#fff">
   <path id="path4571" stroke-width="2" d="m15.345 353.09l306.08 169.71s206.07 82.328 266.68 114.15c-11.534 5.3912-18.153 9.0493-32.815 26.703"/>
   <path id="path4573" stroke-width="3" d="m702.25 578.35c-39.814 10.785-82.486 31.57-119.44 54.497"/>
   <g stroke-width="2">
    <path id="path4575" d="m520.42 448.04c-5.0507 1.0101-59.599 14.142-59.599 14.142s253.55 116.17 257.59 113.14c4.0406-3.0305 67.428-14.142 67.428-14.142"/>
    <path id="path4577" d="m475.97 457.13l-363.65-147.48"/>
   </g>
  </g>
  <g fill="none">
   <path id="path4579" stroke-width="2" d="m648.36 892.85c-37.887 26.103-129.97 72.486-161.99 57.405"/>
   <path id="path4581" stroke-width="3" d="m390.46 878.49c53.876-25.448 180.69 92.507 92.495 116.12"/>
  </g>
  <g fill="#fff">
   <g stroke-width="2">
    <path id="path4583" d="m503.52 774.02c66.315-5.1015 149.1 51.095 146.2 107.37-1.9993 39.548-7.2654 72.456-17.367 85.588"/>
    <path id="path4585" d="m732.55 887.46c0-5.0508 2.612-138.46 2.612-138.46"/>
   </g>
   <g stroke-width="3">
    <path id="path4587" d="m719.3 931.8c-5.4271-13.009 14.928-32.692 31.386-29.785"/>
    <path id="path1901" d="m842.86 643.47c-39.814 10.785-82.486 31.57-119.44 54.498"/>
    <path id="path1903" d="m578.87 641.41l131.83 60.282"/>
   </g>
   <path id="path1905" d="m583.34 661.93l113.57 51.443"/>
   <path id="path1907" stroke-width="3" d="m513.91 764.45c51.76-6.8606 117.66 42.374 137.47 53.644 22.596 1.9789 44.199 4.0604 69.913-11.654 1.7232-24.048 1.4038-24.018 2.1342-64.783"/>
   <path id="path1909" d="m529.14 755.05c18.68-32.706 43.167-19.735 89.121-6.212 46.497 13.682 72.748 44.301 68.455 61.444"/>
   <path id="path1911" d="m634.51 722.45l-42.706 17.727"/>
   <path id="path1913" d="m576.88 675.04l-2.2729 60.109"/>
   <path id="path1915" d="m562.51 705.81l-0.4185 28.16"/>
  </g>
  <path id="path1917" stroke-width="2" fill="#bfbfbf" d="m629.56 629.83c12.842-6.1104 37.249-14.574 52.842-20.75 6.9621-2.6269 36.171-1.2833 22.872 10.057-19.137 7.7272-39.473 19.488-62.28 26.818-37.071-1.046-18.485-15.786-13.434-16.125z"/>
  <g stroke-width="3">
   <path id="path1923" fill="#fff" d="m894.39 924.46c-18.214 8.5714-35 60-14.464 70.714 23.731 5.0512 77.544-22.291 94.821-46.607 14.464-20.357 17.143-46.25 0-46.786-18.214 5.3572-36.807 10.3-53.036 10-10.608-0.19617-18.393 6.7857-27.322 12.679z"/>
   <path id="path1925" fill="none" d="m545.73 994.86c-28.326 11.659-44.286 69.351-15.477 71.451 37.143-1.4359 65.484-32.872 83.362-46.653 26.317-20.285 12.842-48.831 12.842-48.831"/>
   <g fill="#fff">
    <path id="path1927" d="m888.06 817.81c-8.2174 11.703-25.85 18.926-32.929 27.158 4.2857 10 7.128 14.618 7.128 14.618"/>
    <path id="path1929" d="m820.78 866.14c0.15845-17.98 27.995-22.605 36.148-24.018"/>
   </g>
   <path id="path2818" fill="none" d="m629.7 990.08c-32.079 31.154-81.99 70.213-114.01 60.183"/>
   <g fill="#fff">
    <path id="path2826" d="m984.52 928.03c-30.563 25.345-98.657 61.374-113.76 44.021"/>
    <path id="path2828" d="m841.65 882.15c1.2627 2.0203 41.921 52.023 41.921 52.023"/>
    <path id="path2830" d="m870.69 872.05c1.2627 3.283 29.294 47.982 29.294 47.982"/>
   </g>
   <path id="path3717" fill="#bfbfbf" d="m745.69 752.1c0.2525 6.9448 0.12628 33.082 0.37878 39.175 0.25256 5.0823 2.9042 4.7667 7.1973 3.7565 12.374-4.0406 34.093-16.92 43.184-20.203"/>
  </g>
  <path id="path5489" stroke-width="2" fill="#bfbfbf" d="m691.74 659.27c12.842-6.1104 35.228-18.614 50.822-24.791 6.9621-2.6269 37.686-0.7782 24.387 10.562-19.137 7.7272-38.968 23.023-61.775 30.354-37.071-1.046-18.485-15.786-13.434-16.125z"/>
  <g stroke-width="3">
   <path id="path5491" fill="#fff" d="m804.64 881.79c13.431-15.828 23.629-20.608 31.097-10.886"/>
   <g fill="none">
    <path id="path5493" d="m389.73 960.93c23.731 5.0512 58.804 9.4462 70.83-4.9384 13.507-16.155-12.404-54.331-29.547-54.867-15.867 3.5261-39.84 34.256-41.283 59.805z"/>
    <path id="path5495" d="m455.12 961.63c46.539 17.172 39.063-16.018 3.283-36.113"/>
    <path id="path5497" d="m406.02 918.05c-7.6481-9.5969-8.0011-29.655 17.93-14.647"/>
   </g>
  </g>
  <g fill="#bfbfbf">
   <g stroke-width="2">
    <path id="path5499" d="m792.61 562.5c8.0357 0.17859 83.393 3.0357 83.393 3.0357l39.107 14.464-72.321 0.3572-50.178-17.857z"/>
    <path id="path6386" d="m864.39 587.14c1.0715 0.17853 56.288-4.052 63.036-0.89288 56.071 26.25 39.821 42.857 32.143 58.75-9.6428-2.6786-50.893-23.393-50.893-23.393s16.428-5.5357-23.929-25.357c-13.21-6.5148-15.363-5.4282-20.357-9.1071z"/>
   </g>
   <path id="path11698" stroke-width="3" d="m578.86 641.07c-27.755 16.649-51.902 69.764-64.643 123.57 55.595-6.4286 114.76 42.5 136.79 53.571 32.143 5.4762 51.786-1.5476 69.643-11.429l2.8572-64.286-14.643-7.8571c-5.2381-2.262-5.8333-6.3096-6.0714-12.143 0 0 2.1429-8.9286 4.6429-13.571 1.4466-2.6867 3.5714-7.1429 3.5714-7.1429l-132.14-60.714z"/>
  </g>
 </g>
</svg>
