<?xml version="1.0" encoding="UTF-8" standalone="no"?>
<!-- Created with matplotlib (https://matplotlib.org/) -->

<svg
   xmlns:dc="http://purl.org/dc/elements/1.1/"
   xmlns:cc="http://creativecommons.org/ns#"
   xmlns:rdf="http://www.w3.org/1999/02/22-rdf-syntax-ns#"
   xmlns:svg="http://www.w3.org/2000/svg"
   xmlns="http://www.w3.org/2000/svg"
   xmlns:xlink="http://www.w3.org/1999/xlink"
   xmlns:sodipodi="http://sodipodi.sourceforge.net/DTD/sodipodi-0.dtd"
   xmlns:inkscape="http://www.inkscape.org/namespaces/inkscape"
   height="248.27313pt"
   version="1.1"
   viewBox="0 0 348.17335 248.27313"
   width="348.17334pt"
   id="svg108"
   sodipodi:docname="kalman_correct.svg"
   inkscape:version="0.92.5 (2060ec1f9f, 2020-04-08)">
  <metadata
     id="metadata112">
    <rdf:RDF>
      <cc:Work
         rdf:about="">
        <dc:format>image/svg+xml</dc:format>
        <dc:type
           rdf:resource="http://purl.org/dc/dcmitype/StillImage" />
        <dc:title></dc:title>
      </cc:Work>
    </rdf:RDF>
  </metadata>
  <sodipodi:namedview
     pagecolor="#ffffff"
     bordercolor="#666666"
     borderopacity="1"
     objecttolerance="10"
     gridtolerance="10"
     guidetolerance="10"
     inkscape:pageopacity="0"
     inkscape:pageshadow="2"
     inkscape:window-width="2560"
     inkscape:window-height="1388"
     id="namedview110"
     showgrid="false"
     inkscape:zoom="1.8098959"
     inkscape:cx="209.42302"
     inkscape:cy="231.63367"
     inkscape:window-x="0"
     inkscape:window-y="0"
     inkscape:window-maximized="1"
     inkscape:current-layer="svg108"
     fit-margin-top="0"
     fit-margin-left="0"
     fit-margin-right="0"
     fit-margin-bottom="0" />
  <defs
     id="defs4"
     style="stroke-linecap:butt;stroke-linejoin:round">
    <style
       type="text/css"
       id="style2">
*{stroke-linecap:butt;stroke-linejoin:round;}
  </style>
    <marker
       inkscape:stockid="Arrow2Lend"
       orient="auto"
       refY="0"
       refX="0"
       id="Arrow2Lend"
       style="overflow:visible;stroke-linecap:butt;stroke-linejoin:round"
       inkscape:isstock="true">
      <path
         inkscape:connector-curvature="0"
         id="path1254"
         style="fill:#000000;fill-opacity:1;fill-rule:evenodd;stroke:#000000;stroke-width:0.625;stroke-linecap:butt;stroke-linejoin:round;stroke-opacity:1"
         d="M 8.7185878,4.0337352 -2.2072895,0.01601326 8.7185884,-4.0017078 c -1.7454984,2.3720609 -1.7354408,5.6174519 -6e-7,8.035443 z"
         transform="matrix(-1.1,0,0,-1.1,-1.1,0)" />
    </marker>
    <marker
       inkscape:stockid="Arrow2Lend"
       orient="auto"
       refY="0"
       refX="0"
       id="Arrow2Lend-3"
       style="overflow:visible;stroke-linecap:butt;stroke-linejoin:round"
       inkscape:isstock="true">
      <path
         inkscape:connector-curvature="0"
         id="path1254-6"
         style="fill:#000000;fill-opacity:1;fill-rule:evenodd;stroke:#000000;stroke-width:0.625;stroke-linecap:butt;stroke-linejoin:round;stroke-opacity:1"
         d="M 8.7185878,4.0337352 -2.2072895,0.01601326 8.7185884,-4.0017078 c -1.7454984,2.3720609 -1.7354408,5.6174519 -6e-7,8.035443 z"
         transform="matrix(-1.1,0,0,-1.1,-1.1,0)" />
    </marker>
  </defs>
  <g
     id="patch_2"
     style="stroke-linecap:butt;stroke-linejoin:round"
     transform="translate(-73.332727,-48.525515)">
    <path
       clip-path="url(#pa59fb77915)"
       d="m 159.15175,281.66022 c 9.37236,-9.37236 14.63843,-22.08579 14.63843,-35.3403 0,-13.25451 -5.26607,-25.96794 -14.63843,-35.3403 -9.37235,-9.37235 -22.08578,-14.63843 -35.34029,-14.63843 -13.25452,0 -25.967945,5.26608 -35.340302,14.63843 -9.372357,9.37236 -14.638431,22.08579 -14.638431,35.3403 0,13.25451 5.266074,25.96794 14.638431,35.3403 9.372357,9.37235 22.085782,14.63843 35.340302,14.63843 13.25451,0 25.96794,-5.26608 35.34029,-14.63843 z"
       style="fill:none;stroke:#000000;stroke-linecap:butt;stroke-linejoin:miter"
       id="path9"
       inkscape:connector-curvature="0" />
  </g>
  <g
     id="patch_3"
     style="stroke-linecap:butt;stroke-linejoin:round"
     transform="translate(-73.332727,-48.525515)">
    <path
       clip-path="url(#pa59fb77915)"
       d="m 300.35227,169.98615 c 13.28761,-13.28761 20.75356,-31.31201 20.75356,-50.10352 0,-18.79152 -7.46595,-36.815915 -20.75356,-50.103524 -13.28761,-13.287609 -31.312,-20.753557 -50.10352,-20.753557 -18.79152,0 -36.81591,7.465948 -50.10352,20.753557 -13.28761,13.287609 -20.75356,31.312004 -20.75356,50.103524 0,18.79151 7.46595,36.81591 20.75356,50.10352 13.28761,13.2876 31.312,20.75355 50.10352,20.75355 18.79152,0 36.81591,-7.46595 50.10352,-20.75355 z"
       style="fill:none;stroke:#000000;stroke-linecap:butt;stroke-linejoin:miter;stroke-dasharray:3.7, 1.6;stroke-dashoffset:0"
       id="path12"
       inkscape:connector-curvature="0" />
  </g>
  <g
     id="patch_4"
     style="stroke-linecap:butt;stroke-linejoin:round"
     transform="translate(-73.332727,-48.525515)">
    <path
       clip-path="url(#pa59fb77915)"
       d="m 378.11778,194.16082 c 7.65885,-7.65885 11.96215,-18.04794 11.96215,-28.87919 0,-10.83125 -4.3033,-21.22033 -11.96215,-28.87918 -7.65885,-7.65885 -18.04794,-11.96215 -28.87919,-11.96215 -10.83125,0 -21.22033,4.3033 -28.87919,11.96215 -7.65885,7.65885 -11.96215,18.04793 -11.96215,28.87918 0,10.83125 4.3033,21.22034 11.96215,28.87919 7.65886,7.65885 18.04794,11.96216 28.87919,11.96216 10.83125,0 21.22034,-4.30331 28.87919,-11.96216 z"
       style="fill:none;stroke:#000000;stroke-linecap:butt;stroke-linejoin:miter"
       id="path15"
       inkscape:connector-curvature="0" />
  </g>
  <g
     id="line2d_1"
     style="stroke-linecap:butt;stroke-linejoin:round"
     transform="translate(-73.332727,-48.525515)">
    <defs
       id="defs19">
      <path
         d="M -3,3 H 3 V -3 H -3 Z"
         id="m62a6bc1075"
         style="stroke:#000000;stroke-linecap:butt;stroke-linejoin:miter"
         inkscape:connector-curvature="0" />
    </defs>
    <g
       clip-path="url(#pa59fb77915)"
       id="g23"
       style="stroke-linecap:butt;stroke-linejoin:round">
      <use
         style="stroke:#000000;stroke-linecap:butt;stroke-linejoin:miter"
         x="123.81145"
         xlink:href="#m62a6bc1075"
         y="246.31992"
         id="use21"
         width="100%"
         height="100%" />
    </g>
  </g>
  <g
     id="line2d_2"
     style="stroke-linecap:butt;stroke-linejoin:round"
     transform="translate(-73.332727,-48.525515)">
    <g
       clip-path="url(#pa59fb77915)"
       id="g28"
       style="stroke-linecap:butt;stroke-linejoin:round">
      <use
         style="stroke:#000000;stroke-linecap:butt;stroke-linejoin:miter"
         x="250.24875"
         xlink:href="#m62a6bc1075"
         y="119.88263"
         id="use26"
         width="100%"
         height="100%" />
    </g>
  </g>
  <g
     id="line2d_3"
     style="stroke-linecap:butt;stroke-linejoin:round"
     transform="translate(-73.332727,-48.525515)">
    <g
       clip-path="url(#pa59fb77915)"
       id="g33"
       style="stroke-linecap:butt;stroke-linejoin:round">
      <use
         style="stroke:#000000;stroke-linecap:butt;stroke-linejoin:miter"
         x="250.24875"
         xlink:href="#m62a6bc1075"
         y="119.88263"
         id="use31"
         width="100%"
         height="100%" />
    </g>
  </g>
  <g
     id="line2d_4"
     style="stroke-linecap:butt;stroke-linejoin:round"
     transform="translate(-73.332727,-48.525515)">
    <defs
       id="defs37">
      <path
         d="M 0,3 C 0.795609,3 1.55874,2.683901 2.12132,2.12132 2.683901,1.55874 3,0.795609 3,0 3,-0.795609 2.683901,-1.55874 2.12132,-2.12132 1.55874,-2.683901 0.795609,-3 0,-3 -0.795609,-3 -1.55874,-2.683901 -2.12132,-2.12132 -2.683901,-1.55874 -3,-0.795609 -3,0 -3,0.795609 -2.683901,1.55874 -2.12132,2.12132 -1.55874,2.683901 -0.795609,3 0,3 Z"
         id="mbf18d6a6a5"
         style="stroke:#0000ff;stroke-linecap:butt;stroke-linejoin:round"
         inkscape:connector-curvature="0" />
    </defs>
    <g
       clip-path="url(#pa59fb77915)"
       id="g41"
       style="stroke-linecap:butt;stroke-linejoin:round">
      <use
         style="fill:#0000ff;stroke:#0000ff;stroke-linecap:butt;stroke-linejoin:round"
         x="398.48727"
         xlink:href="#mbf18d6a6a5"
         y="187.86821"
         id="use39"
         width="100%"
         height="100%" />
    </g>
  </g>
  <g
     id="line2d_5"
     style="stroke-linecap:butt;stroke-linejoin:round"
     transform="translate(-73.332727,-48.525515)">
    <g
       clip-path="url(#pa59fb77915)"
       id="g46"
       style="stroke-linecap:butt;stroke-linejoin:round">
      <use
         style="stroke:#000000;stroke-linecap:butt;stroke-linejoin:miter"
         x="349.23859"
         xlink:href="#m62a6bc1075"
         y="165.28163"
         id="use44"
         width="100%"
         height="100%" />
    </g>
  </g>
  <defs
     id="defs106">
    <clipPath
       id="pa59fb77915"
       style="stroke-linecap:butt;stroke-linejoin:round">
      <rect
         height="266.112"
         width="357.12"
         x="57.599998"
         y="41.472"
         id="rect103"
         style="stroke-linecap:butt;stroke-linejoin:round" />
    </clipPath>
  </defs>
  <g
     id="g1114"
     transform="translate(-111.29079,40.210774)"
     style="stroke-linecap:butt;stroke-linejoin:round">
    <g
       word-spacing="normal"
       letter-spacing="normal"
       font-size-adjust="none"
       font-stretch="normal"
       font-weight="normal"
       font-variant="normal"
       font-style="normal"
       stroke-miterlimit="10.433"
       xml:space="preserve"
       transform="matrix(0.49371429,0,0,-0.49371429,-86.4,345.6)"
       id="g1112"
       style="font-style:normal;font-variant:normal;font-weight:normal;font-stretch:normal;letter-spacing:normal;word-spacing:normal;text-anchor:start;fill:none;fill-opacity:1;fill-rule:evenodd;stroke:#000000;stroke-linecap:butt;stroke-linejoin:round;stroke-miterlimit:10.43299961;stroke-dasharray:none;stroke-dashoffset:0;stroke-opacity:1"><polygon
         id="polygon1106"
         points="470.73,441.5 464.06,434.72 464.95,433.83 470.73,438.91 476.47,433.83 477.36,434.72 "
         style="fill:#000000;stroke-width:0;stroke-linecap:butt;stroke-linejoin:round" /><path
         id="path1108"
         d="m 472.75,418.45 5.83,6.48 c 0.66,0.71 0.96,1.05 5.1,1.05 v 2.34 c -1.75,-0.11 -4.35,-0.15 -4.6,-0.15 -1.25,0 -3.73,0.11 -5.12,0.15 v -2.34 c 0.68,0 1.29,-0.11 1.89,-0.45 -0.21,-0.3 -0.21,-0.39 -0.41,-0.6 l -4.17,-4.68 -4.89,5.73 h 2 v 2.34 c -1.3,-0.04 -4.44,-0.15 -6.03,-0.15 -1.6,0 -3.85,0.11 -5.49,0.15 v -2.34 h 3.53 l 7.79,-9.17 -6.54,-7.33 c -0.84,-0.94 -2.64,-0.94 -5.03,-0.94 v -2.34 c 1.75,0.09 4.35,0.16 4.58,0.16 1.25,0 4.14,-0.11 5.14,-0.16 v 2.34 c -0.89,0 -1.84,0.25 -1.84,0.55 0,0.05 0,0.09 0.34,0.5 l 4.85,5.42 5.46,-6.47 h -1.93 v -2.34 c 1.29,0.05 4.33,0.16 5.98,0.16 1.6,0 3.83,-0.11 5.47,-0.16 v 2.34 h -3.53 z"
         inkscape:connector-curvature="0"
         style="fill:#000000;stroke-width:0;stroke-linecap:butt;stroke-linejoin:round" /><path
         id="path1110"
         d="m 503.75,409.87 -0.01,0.71 -0.02,0.68 -0.03,0.66 -0.04,0.64 -0.06,0.62 -0.07,0.6 -0.09,0.57 -0.11,0.56 -0.13,0.55 -0.15,0.53 -0.16,0.51 -0.2,0.5 -0.21,0.49 -0.24,0.48 -0.26,0.47 -0.14,0.23 -0.15,0.23 c -1.07,1.61 -3.23,3 -6.03,3 v -0.98 c 1.89,0 3.71,-1.14 4.33,-3.17 0.56,-1.88 0.59,-4.39 0.59,-7.43 0,-2.57 0,-5.15 -0.45,-7.34 -0.7,-3.17 -3.06,-3.94 -4.47,-3.94 v 0 c -1.59,0 -3.72,0.94 -4.42,3.8 -0.48,2.05 -0.48,4.91 -0.48,7.48 0,2.55 0,5.21 0.51,7.11 0.74,2.75 2.97,3.49 4.39,3.49 v 0.98 c -8.08,0 -8.08,-9.51 -8.08,-12.03 0,-2.5 0,-11.81 8.08,-11.81 8.1,0 8.1,9.31 8.1,11.81 z"
         inkscape:connector-curvature="0"
         style="fill:#000000;stroke-width:0;stroke-linecap:butt;stroke-linejoin:round" /></g>  </g>
  <g
     id="g1222"
     transform="translate(13.211379,-88.699604)"
     style="stroke-linecap:butt;stroke-linejoin:round">
    <g
       word-spacing="normal"
       letter-spacing="normal"
       font-size-adjust="none"
       font-stretch="normal"
       font-weight="normal"
       font-variant="normal"
       font-style="normal"
       stroke-miterlimit="10.433"
       xml:space="preserve"
       transform="matrix(0.49371429,0,0,-0.49371429,-86.4,345.6)"
       id="content"
       style="font-style:normal;font-variant:normal;font-weight:normal;font-stretch:normal;letter-spacing:normal;word-spacing:normal;text-anchor:start;fill:none;fill-opacity:1;fill-rule:evenodd;stroke:#000000;stroke-linecap:butt;stroke-linejoin:round;stroke-miterlimit:10.43299961;stroke-dasharray:none;stroke-dashoffset:0;stroke-opacity:1"><polygon
         id="polygon1213"
         points="476.47,433.83 477.36,434.72 470.73,441.5 464.06,434.72 464.95,433.83 470.73,438.91 "
         style="fill:#000000;stroke-width:0;stroke-linecap:butt;stroke-linejoin:round" /><path
         id="path1215"
         d="m 472.75,418.45 5.83,6.48 c 0.66,0.71 0.96,1.05 5.1,1.05 v 2.34 c -1.75,-0.11 -4.35,-0.15 -4.6,-0.15 -1.25,0 -3.73,0.11 -5.12,0.15 v -2.34 c 0.68,0 1.29,-0.11 1.89,-0.45 -0.21,-0.3 -0.21,-0.39 -0.41,-0.6 l -4.17,-4.68 -4.89,5.73 h 2 v 2.34 c -1.3,-0.04 -4.44,-0.15 -6.03,-0.15 -1.6,0 -3.85,0.11 -5.49,0.15 v -2.34 h 3.53 l 7.79,-9.17 -6.54,-7.33 c -0.84,-0.94 -2.64,-0.94 -5.03,-0.94 v -2.34 c 1.75,0.09 4.35,0.16 4.58,0.16 1.25,0 4.14,-0.11 5.14,-0.16 v 2.34 c -0.89,0 -1.84,0.25 -1.84,0.55 0,0.05 0,0.09 0.34,0.5 l 4.85,5.42 5.46,-6.47 h -1.93 v -2.34 c 1.29,0.05 4.33,0.16 5.98,0.16 1.6,0 3.83,-0.11 5.47,-0.16 v 2.34 h -3.53 z"
         inkscape:connector-curvature="0"
         style="fill:#000000;stroke-width:0;stroke-linecap:butt;stroke-linejoin:round" /><path
         id="path1217"
         d="m 511.68,435.32 h 0.06 0.05 0.12 0.11 0.06 l 0.06,0.01 h 0.06 l 0.06,0.01 0.05,0.01 0.06,0.01 0.06,0.01 0.05,0.02 0.06,0.01 0.05,0.02 0.05,0.02 0.05,0.03 0.05,0.02 0.04,0.03 0.04,0.03 0.04,0.04 0.04,0.04 0.02,0.02 0.02,0.02 0.01,0.02 0.02,0.03 0.01,0.02 0.01,0.03 0.02,0.03 0.01,0.02 0.01,0.03 0.01,0.03 0.01,0.03 v 0.03 l 0.01,0.04 v 0.03 l 0.01,0.04 v 0.03 0.04 0.04 c 0,0.86 -0.79,0.86 -1.39,0.86 h -20.76 c -0.56,0 -1.39,0 -1.39,-0.83 0,-0.87 0.79,-0.87 1.39,-0.87 z"
         inkscape:connector-curvature="0"
         style="fill:#000000;stroke-width:0;stroke-linecap:butt;stroke-linejoin:round" /><path
         id="path1219"
         d="m 497.43,415.04 v 0.04 0.04 0.04 0.04 0.04 0.04 0.04 0.03 0.03 0.04 l -0.01,0.03 v 0.03 0.03 0.03 l -0.01,0.02 v 0.03 l -0.01,0.03 v 0.02 l -0.01,0.02 v 0.03 l -0.01,0.04 -0.02,0.04 -0.01,0.03 -0.02,0.03 -0.03,0.03 -0.02,0.02 -0.03,0.03 -0.03,0.02 -0.03,0.01 -0.04,0.02 -0.04,0.01 -0.04,0.01 -0.05,0.01 -0.03,0.01 h -0.02 -0.03 l -0.03,0.01 h -0.03 -0.03 -0.03 -0.04 l -0.03,0.01 h -0.04 -0.03 -0.04 -0.04 -0.04 -0.04 -0.04 -0.05 -0.04 c -2.24,-2.2 -5.39,-2.23 -6.83,-2.23 v -1.25 c 0.84,0 3.14,0 5.05,0.96 v -17.76 c 0,-1.16 0,-1.61 -3.49,-1.61 h -1.31 v -1.25 c 0.62,0.03 4.9,0.14 6.2,0.14 1.08,0 5.47,-0.11 6.24,-0.14 v 1.25 h -1.33 c -3.49,0 -3.49,0.45 -3.49,1.61 z"
         inkscape:connector-curvature="0"
         style="fill:#000000;stroke-width:0;stroke-linecap:butt;stroke-linejoin:round" /></g>  </g>
  <g
     id="g1850"
     transform="translate(138.0054,-38.165803)"
     style="stroke-linecap:butt;stroke-linejoin:round">
    <g
       word-spacing="normal"
       letter-spacing="normal"
       font-size-adjust="none"
       font-stretch="normal"
       font-weight="normal"
       font-variant="normal"
       font-style="normal"
       stroke-miterlimit="10.433"
       xml:space="preserve"
       transform="matrix(0.49371429,0,0,-0.49371429,-86.4,345.6)"
       id="g1848"
       style="font-style:normal;font-variant:normal;font-weight:normal;font-stretch:normal;letter-spacing:normal;word-spacing:normal;text-anchor:start;fill:none;fill-opacity:1;fill-rule:evenodd;stroke:#000000;stroke-linecap:butt;stroke-linejoin:round;stroke-miterlimit:10.43299961;stroke-dasharray:none;stroke-dashoffset:0;stroke-opacity:1"><polygon
         id="polygon1842"
         points="470.73,441.5 464.06,434.72 464.95,433.83 470.73,438.91 476.47,433.83 477.36,434.72 "
         style="fill:#000000;stroke-width:0;stroke-linecap:butt;stroke-linejoin:round" /><path
         id="path1844"
         d="m 472.75,418.45 5.83,6.48 c 0.66,0.71 0.96,1.05 5.1,1.05 v 2.34 c -1.75,-0.11 -4.35,-0.15 -4.6,-0.15 -1.25,0 -3.73,0.11 -5.12,0.15 v -2.34 c 0.68,0 1.29,-0.11 1.89,-0.45 -0.21,-0.3 -0.21,-0.39 -0.41,-0.6 l -4.17,-4.68 -4.89,5.73 h 2 v 2.34 c -1.3,-0.04 -4.44,-0.15 -6.03,-0.15 -1.6,0 -3.85,0.11 -5.49,0.15 v -2.34 h 3.53 l 7.79,-9.17 -6.54,-7.33 c -0.84,-0.94 -2.64,-0.94 -5.03,-0.94 v -2.34 c 1.75,0.09 4.35,0.16 4.58,0.16 1.25,0 4.14,-0.11 5.14,-0.16 v 2.34 c -0.89,0 -1.84,0.25 -1.84,0.55 0,0.05 0,0.09 0.34,0.5 l 4.85,5.42 5.46,-6.47 h -1.93 v -2.34 c 1.29,0.05 4.33,0.16 5.98,0.16 1.6,0 3.83,-0.11 5.47,-0.16 v 2.34 h -3.53 z"
         inkscape:connector-curvature="0"
         style="fill:#000000;stroke-width:0;stroke-linecap:butt;stroke-linejoin:round" /><path
         id="path1846"
         d="m 497.43,420.92 v 0.04 0.04 0.05 0.04 0.03 0.04 0.04 0.03 0.04 0.03 l -0.01,0.03 v 0.03 0.03 0.03 l -0.01,0.03 v 0.02 l -0.01,0.03 v 0.02 l -0.01,0.03 v 0.02 l -0.01,0.04 -0.02,0.04 -0.01,0.03 -0.02,0.03 -0.03,0.03 -0.02,0.03 -0.03,0.02 -0.03,0.02 -0.03,0.02 -0.04,0.01 -0.04,0.01 -0.04,0.02 h -0.03 -0.02 l -0.03,0.01 h -0.02 l -0.03,0.01 h -0.03 -0.03 -0.03 -0.03 l -0.04,0.01 h -0.03 -0.04 -0.03 -0.04 -0.04 -0.04 -0.04 -0.04 -0.05 -0.04 c -2.24,-2.2 -5.39,-2.23 -6.83,-2.23 v -1.25 c 0.84,0 3.14,0 5.05,0.97 v -17.77 c 0,-1.16 0,-1.61 -3.49,-1.61 h -1.31 v -1.25 c 0.62,0.03 4.9,0.14 6.2,0.14 1.08,0 5.47,-0.11 6.24,-0.14 v 1.25 h -1.33 c -3.49,0 -3.49,0.45 -3.49,1.61 z"
         inkscape:connector-curvature="0"
         style="fill:#000000;stroke-width:0;stroke-linecap:butt;stroke-linejoin:round" /></g>  </g>
  <path
     style="fill:none;stroke:#000000;stroke-width:1.5;stroke-linecap:butt;stroke-linejoin:miter;stroke-miterlimit:4;stroke-dasharray:none;stroke-opacity:1;marker-end:url(#Arrow2Lend-3)"
     d="m 177.30279,71.313985 90.7511,42.267615"
     id="path1231-7"
     inkscape:connector-curvature="0"
     sodipodi:nodetypes="cc" />
  <g
     id="g2580"
     transform="translate(188.97518,-12.059328)"
     style="stroke-linecap:butt;stroke-linejoin:round">
    <g
       word-spacing="normal"
       letter-spacing="normal"
       font-size-adjust="none"
       font-stretch="normal"
       font-weight="normal"
       font-variant="normal"
       font-style="normal"
       stroke-miterlimit="10.433"
       xml:space="preserve"
       transform="matrix(0.49371429,0,0,-0.49371429,-86.4,345.6)"
       id="g2578"
       style="font-style:normal;font-variant:normal;font-weight:normal;font-stretch:normal;letter-spacing:normal;word-spacing:normal;text-anchor:start;fill:none;fill-opacity:1;fill-rule:evenodd;stroke:#000000;stroke-linecap:butt;stroke-linejoin:round;stroke-miterlimit:10.43299961;stroke-dasharray:none;stroke-dashoffset:0;stroke-opacity:1"><path
         id="path2574"
         d="m 477.89,426.18 0.04,0.05 0.03,0.05 0.04,0.05 0.03,0.04 0.03,0.04 0.03,0.04 0.02,0.04 0.03,0.03 0.02,0.04 0.02,0.03 0.02,0.03 0.02,0.03 0.02,0.03 0.02,0.03 0.02,0.03 0.01,0.03 0.01,0.02 0.02,0.03 0.01,0.03 0.01,0.03 0.01,0.02 0.01,0.03 0.01,0.03 v 0.03 l 0.01,0.03 v 0.03 l 0.01,0.04 v 0.03 0.04 0.04 0.04 0.04 c 0,1.04 -0.7,1.04 -1.59,1.04 h -18.3 l -0.59,-8.71 h 2.34 c 0.3,5.12 1.85,6.92 6.97,6.92 h 4.24 l -13.89,-18.14 c -0.46,-0.55 -0.46,-0.64 -0.46,-1.1 0,-1.09 0.64,-1.09 1.6,-1.09 h 18.93 l 0.9,10.06 h -2.35 c -0.44,-5.03 -1.23,-8.06 -7.81,-8.06 h -4.3 z"
         inkscape:connector-curvature="0"
         style="fill:#000000;stroke-width:0;stroke-linecap:butt;stroke-linejoin:round" /><path
         id="path2576"
         d="m 492.63,420.92 v 0.04 0.04 0.05 0.04 0.03 0.04 0.04 0.03 0.04 0.03 l -0.01,0.03 v 0.03 0.03 l -0.01,0.03 v 0.03 0.02 l -0.01,0.03 v 0.02 l -0.01,0.03 v 0.02 l -0.01,0.04 -0.02,0.04 -0.02,0.03 -0.02,0.03 -0.02,0.03 -0.02,0.03 -0.03,0.02 -0.03,0.02 -0.03,0.02 -0.04,0.01 -0.04,0.01 -0.05,0.02 h -0.02 -0.02 l -0.03,0.01 h -0.03 l -0.02,0.01 h -0.03 -0.03 -0.03 -0.03 l -0.04,0.01 h -0.03 -0.04 -0.03 -0.04 -0.04 -0.04 -0.04 -0.04 -0.05 -0.04 c -2.24,-2.2 -5.39,-2.23 -6.83,-2.23 v -1.25 c 0.84,0 3.14,0 5.04,0.97 v -17.77 c 0,-1.16 0,-1.61 -3.48,-1.61 h -1.31 v -1.25 c 0.62,0.03 4.9,0.14 6.2,0.14 1.08,0 5.47,-0.11 6.24,-0.14 v 1.25 h -1.33 c -3.49,0 -3.49,0.45 -3.49,1.61 z"
         inkscape:connector-curvature="0"
         style="fill:#000000;stroke-width:0;stroke-linecap:butt;stroke-linejoin:round" /></g>  </g>
</svg>
