<?xml version="1.0" encoding="UTF-8" standalone="no"?>
<svg
   xmlns:dc="http://purl.org/dc/elements/1.1/"
   xmlns:cc="http://creativecommons.org/ns#"
   xmlns:rdf="http://www.w3.org/1999/02/22-rdf-syntax-ns#"
   xmlns:svg="http://www.w3.org/2000/svg"
   xmlns="http://www.w3.org/2000/svg"
   id="svg195"
   width="326.15454pt"
   viewBox="0 0 326.15455 66.085761"
   version="1.1"
   height="66.085762pt">
  <metadata
     id="metadata199">
    <rdf:RDF>
      <cc:Work
         rdf:about="">
        <dc:format>image/svg+xml</dc:format>
        <dc:type
           rdf:resource="http://purl.org/dc/dcmitype/StillImage" />
        <dc:title></dc:title>
      </cc:Work>
    </rdf:RDF>
  </metadata>
  <defs
     style="stroke-linecap:butt;stroke-linejoin:round"
     id="defs4">
    <marker
       style="overflow:visible;stroke-linecap:butt;stroke-linejoin:round"
       id="DotM"
       refX="0"
       refY="0"
       orient="auto">
      <path
         transform="matrix(0.4,0,0,0.4,2.96,0.4)"
         style="fill:#000000;fill-opacity:1;fill-rule:evenodd;stroke:#000000;stroke-width:1.00000003pt;stroke-linecap:butt;stroke-linejoin:round;stroke-opacity:1"
         d="m -2.5,-1 c 0,2.76 -2.24,5 -5,5 -2.76,0 -5,-2.24 -5,-5 0,-2.76 2.24,-5 5,-5 2.76,0 5,2.24 5,5 z"
         id="path5069" />
    </marker>
    <marker
       style="overflow:visible;stroke-linecap:butt;stroke-linejoin:round"
       id="DotL"
       refX="0"
       refY="0"
       orient="auto">
      <path
         transform="matrix(0.8,0,0,0.8,5.92,0.8)"
         style="fill:#000000;fill-opacity:1;fill-rule:evenodd;stroke:#000000;stroke-width:1.00000003pt;stroke-linecap:butt;stroke-linejoin:round;stroke-opacity:1"
         d="m -2.5,-1 c 0,2.76 -2.24,5 -5,5 -2.76,0 -5,-2.24 -5,-5 0,-2.76 2.24,-5 5,-5 2.76,0 5,2.24 5,5 z"
         id="path5066" />
    </marker>
    <style
       id="style2"
       type="text/css">
*{stroke-linecap:butt;stroke-linejoin:round;}
  </style>
  </defs>
  <path
     d="m 49.305028,61.7387 c 1.29149,0 2.53026,-0.37745 3.44348,-1.04922 0.91322,-0.67178 1.42634,-1.58303 1.42634,-2.53306 0,-0.95003 -0.51312,-1.86128 -1.42634,-2.53305 -0.91322,-0.67177 -2.15199,-1.04922 -3.44348,-1.04922 -1.29149,0 -2.53026,0.37745 -3.44348,1.04922 -0.91322,0.67177 -1.42634,1.58302 -1.42634,2.53305 0,0.95003 0.51312,1.86128 1.42634,2.53306 0.91322,0.67177 2.15199,1.04922 3.44348,1.04922 z"
     style="stroke:#000000;stroke-linecap:butt;stroke-linejoin:round"
     id="path9" />
  <path
     d="m 49.305028,50.99187 c 2.58298,0 5.06052,-0.7549 6.88696,-2.09845 1.82645,-1.34355 2.85268,-3.16604 2.85268,-5.06611 0,-1.90006 -1.02623,-3.72255 -2.85268,-5.0661 -1.82644,-1.34355 -4.30398,-2.09845 -6.88696,-2.09845 -2.58298,0 -5.06052,0.7549 -6.88696,2.09845 -1.82645,1.34355 -2.85268,3.16604 -2.85268,5.0661 0,1.90007 1.02623,3.72256 2.85268,5.06611 1.82644,1.34355 4.30398,2.09845 6.88696,2.09845 z"
     style="fill:#ffffff;stroke:#000000;stroke-linecap:butt;stroke-linejoin:round"
     id="path11" />
  <path
     d="m 39.565388,58.15642 h 19.47928 V 43.82731 h -19.47928 z"
     style="fill:#ffffff;stroke:#000000;stroke-linecap:butt;stroke-linejoin:round"
     id="path13" />
  <g
     transform="translate(-73.082727,-181.08778)"
     style="stroke-linecap:butt;stroke-linejoin:round"
     id="patch_12">
    <path
       id="path46"
       style="fill:#808080;stroke:#000000;stroke-width:2;stroke-linecap:butt;stroke-linejoin:miter"
       d="m 73.832727,246.17354 h 32.465453 v 0 z" />
  </g>
  <g
     transform="translate(-73.082727,-181.08778)"
     style="stroke-linecap:butt;stroke-linejoin:round"
     id="patch_13">
    <path
       id="path49"
       style="fill:#808080;stroke:#000000;stroke-width:2;stroke-linecap:butt;stroke-linejoin:miter"
       d="m 106.29818,246.17354 h 32.46546 v 0 z" />
  </g>
  <g
     transform="translate(-73.082727,-181.08778)"
     style="stroke-linecap:butt;stroke-linejoin:round"
     id="patch_14">
    <path
       id="path52"
       style="fill:#808080;stroke:#000000;stroke-width:2;stroke-linecap:butt;stroke-linejoin:miter"
       d="m 138.76364,246.17354 h 32.46545 v 0 z" />
  </g>
  <g
     transform="translate(-73.082727,-181.08778)"
     style="stroke-linecap:butt;stroke-linejoin:round"
     id="patch_15">
    <path
       id="path55"
       style="fill:#808080;stroke:#000000;stroke-width:2;stroke-linecap:butt;stroke-linejoin:miter"
       d="m 171.22909,246.17354 h 32.46545 v 0 z" />
  </g>
  <g
     transform="translate(-73.082727,-181.08778)"
     style="stroke-linecap:butt;stroke-linejoin:round"
     id="patch_16">
    <path
       id="path58"
       style="fill:#808080;stroke:#000000;stroke-width:2;stroke-linecap:butt;stroke-linejoin:miter"
       d="M 203.69454,246.17354 H 236.16 v 0 z" />
  </g>
  <g
     transform="translate(-73.082727,-181.08778)"
     style="stroke-linecap:butt;stroke-linejoin:round"
     id="patch_17">
    <path
       id="path61"
       style="fill:#808080;stroke:#000000;stroke-width:2;stroke-linecap:butt;stroke-linejoin:miter"
       d="m 236.16,246.17354 h 32.46545 v 0 z" />
  </g>
  <g
     transform="translate(-73.082727,-181.08778)"
     style="stroke-linecap:butt;stroke-linejoin:round"
     id="patch_18">
    <path
       id="path64"
       style="fill:#808080;stroke:#000000;stroke-width:2;stroke-linecap:butt;stroke-linejoin:miter"
       d="m 268.62545,246.17354 h 32.46546 v 0 z" />
  </g>
  <g
     transform="translate(-73.082727,-181.08778)"
     style="stroke-linecap:butt;stroke-linejoin:round"
     id="patch_19">
    <path
       id="path67"
       style="fill:#808080;stroke:#000000;stroke-width:2;stroke-linecap:butt;stroke-linejoin:miter"
       d="m 301.09091,246.17354 h 32.46545 v 0 z" />
  </g>
  <g
     transform="translate(-73.082727,-181.08778)"
     style="stroke-linecap:butt;stroke-linejoin:round"
     id="patch_20">
    <path
       id="path70"
       style="fill:#808080;stroke:#000000;stroke-width:2;stroke-linecap:butt;stroke-linejoin:miter"
       d="m 333.55636,246.17354 h 32.46546 v 0 z" />
  </g>
  <g
     transform="translate(-73.082727,-181.08778)"
     style="stroke-linecap:butt;stroke-linejoin:round"
     id="patch_21">
    <path
       id="path73"
       style="fill:#808080;stroke:#000000;stroke-width:2;stroke-linecap:butt;stroke-linejoin:miter"
       d="m 366.02182,246.17354 h 32.46545 v 0 z" />
  </g>
  <g
     transform="translate(-73.082727,-181.08778)"
     style="stroke-linecap:butt;stroke-linejoin:round"
     id="line2d_1">
    <path
       id="path76"
       style="fill:none;stroke:#000000;stroke-width:1.5;stroke-linecap:square;stroke-linejoin:round"
       d="m 73.832727,246.17354 v -4.09403" />
  </g>
  <g
     transform="translate(-73.082727,-181.08778)"
     style="stroke-linecap:butt;stroke-linejoin:round"
     id="line2d_2">
    <path
       id="path79"
       style="fill:none;stroke:#000000;stroke-width:1.5;stroke-linecap:square;stroke-linejoin:round"
       d="m 106.29818,246.17354 v -4.09403" />
  </g>
  <g
     transform="translate(-73.082727,-181.08778)"
     style="stroke-linecap:butt;stroke-linejoin:round"
     id="line2d_3">
    <path
       id="path82"
       style="fill:none;stroke:#000000;stroke-width:1.5;stroke-linecap:square;stroke-linejoin:round"
       d="m 138.76364,246.17354 v -4.09403" />
  </g>
  <g
     transform="translate(-73.082727,-181.08778)"
     style="stroke-linecap:butt;stroke-linejoin:round"
     id="line2d_4">
    <path
       id="path85"
       style="fill:none;stroke:#000000;stroke-width:1.5;stroke-linecap:square;stroke-linejoin:round"
       d="m 171.22909,246.17354 v -4.09403" />
  </g>
  <g
     transform="translate(-73.082727,-181.08778)"
     style="stroke-linecap:butt;stroke-linejoin:round"
     id="line2d_5">
    <path
       id="path88"
       style="fill:none;stroke:#000000;stroke-width:1.5;stroke-linecap:square;stroke-linejoin:round"
       d="m 203.69454,246.17354 v -4.09403" />
  </g>
  <g
     transform="translate(-73.082727,-181.08778)"
     style="stroke-linecap:butt;stroke-linejoin:round"
     id="line2d_6">
    <path
       id="path91"
       style="fill:none;stroke:#000000;stroke-width:1.5;stroke-linecap:square;stroke-linejoin:round"
       d="m 236.16,246.17354 v -4.09403" />
  </g>
  <g
     transform="translate(-73.082727,-181.08778)"
     style="stroke-linecap:butt;stroke-linejoin:round"
     id="line2d_7">
    <path
       id="path94"
       style="fill:none;stroke:#000000;stroke-width:1.5;stroke-linecap:square;stroke-linejoin:round"
       d="m 268.62545,246.17354 v -4.09403" />
  </g>
  <g
     transform="translate(-73.082727,-181.08778)"
     style="stroke-linecap:butt;stroke-linejoin:round"
     id="line2d_8">
    <path
       id="path97"
       style="fill:none;stroke:#000000;stroke-width:1.5;stroke-linecap:square;stroke-linejoin:round"
       d="m 301.09091,246.17354 v -4.09403" />
  </g>
  <g
     transform="translate(-73.082727,-181.08778)"
     style="stroke-linecap:butt;stroke-linejoin:round"
     id="line2d_9">
    <path
       id="path100"
       style="fill:none;stroke:#000000;stroke-width:1.5;stroke-linecap:square;stroke-linejoin:round"
       d="m 333.55636,246.17354 v -4.09403" />
  </g>
  <g
     transform="translate(-73.082727,-181.08778)"
     style="stroke-linecap:butt;stroke-linejoin:round"
     id="line2d_10">
    <path
       id="path103"
       style="fill:none;stroke:#000000;stroke-width:1.5;stroke-linecap:square;stroke-linejoin:round"
       d="m 366.02182,246.17354 v -4.09403" />
  </g>
  <g
     transform="translate(-73.082727,-181.08778)"
     style="stroke-linecap:butt;stroke-linejoin:round"
     id="line2d_11">
    <path
       id="path106"
       style="fill:none;stroke:#000000;stroke-width:1.5;stroke-linecap:square;stroke-linejoin:round"
       d="m 398.48727,246.17354 v -4.09403" />
  </g>
  <path
     id="path479"
     d="M 147.40605,0 V 11.18849"
     style="fill:none;stroke:#000000;stroke-width:0.75px;stroke-linecap:butt;stroke-linejoin:miter;stroke-opacity:1;marker-end:url(#DotM)" />
  <path
     d="m 151.20345,13.025791 a 4.5582733,5.1798558 0 0 1 -3.80063,2.306578 4.5582733,5.1798558 0 0 1 -3.79356,-2.321572"
     id="path4999"
     style="opacity:1;fill:none;stroke:#000000;stroke-width:0.75;stroke-linecap:butt;stroke-linejoin:round;stroke-miterlimit:4;stroke-dasharray:none;stroke-opacity:1" />
  <path
     d="m 153.79245,17.168093 a 7.6661868,7.0446038 0 0 1 -6.39197,3.136947 7.6661868,7.0446038 0 0 1 -6.38007,-3.157339"
     id="path5001"
     style="opacity:1;fill:none;stroke:#000000;stroke-width:0.75;stroke-linecap:butt;stroke-linejoin:round;stroke-miterlimit:4;stroke-dasharray:none;stroke-opacity:1" />
  <path
     d="m 156.03627,21.449562 a 10.359712,7.6661868 0 0 1 -8.6378,3.413736 10.359712,7.6661868 0 0 1 -8.62171,-3.435927"
     id="path5003"
     style="opacity:1;fill:none;stroke:#000000;stroke-width:0.75;stroke-linecap:butt;stroke-linejoin:round;stroke-miterlimit:4;stroke-dasharray:none;stroke-opacity:1" />
</svg>
